<svg xmlns="http://www.w3.org/2000/svg" viewBox="0 0 256 256">
  <defs>
    <radialGradient id="bg" cx="48%" cy="38%" r="70%">
      <stop offset="0" stop-color="#31405a"/>
      <stop offset="0.58" stop-color="#17202f"/>
      <stop offset="1" stop-color="#0b0f18"/>
    </radialGradient>
    <linearGradient id="gold" x1="44" y1="28" x2="210" y2="224">
      <stop offset="0" stop-color="#fff2bd"/>
      <stop offset="0.32" stop-color="#d8b363"/>
      <stop offset="0.7" stop-color="#8f6734"/>
      <stop offset="1" stop-color="#f3d994"/>
    </linearGradient>
    <filter id="shadow" x="-20%" y="-20%" width="140%" height="140%">
      <feDropShadow dx="0" dy="8" stdDeviation="8" flood-color="#000" flood-opacity=".45"/>
    </filter>
  </defs>

  <rect width="256" height="256" rx="54" fill="#0f1218"/>
  <circle cx="128" cy="128" r="106" fill="url(#bg)" stroke="url(#gold)" stroke-width="10"/>
  <circle cx="128" cy="128" r="82" fill="none" stroke="#d8b363" stroke-width="2" opacity=".55"/>

  <path d="M75 190c-10-18-14-37-9-58 7-32 33-57 62-75 29 18 55 43 62 75 5 21 1 40-9 58-17-7-34-10-53-10s-36 3-53 10z"
        fill="#7d2d34" opacity=".86" stroke="#e5c47b" stroke-width="4" filter="url(#shadow)"/>

  <text x="128" y="121" text-anchor="middle"
        font-family="Georgia, 'Times New Roman', serif"
        font-size="58" font-weight="700" fill="#f6e6b9"
        stroke="#3a2818" stroke-width="1.5">117</text>
  <text x="128" y="164" text-anchor="middle" direction="rtl"
        font-family="'Segoe UI', Tahoma, Arial, sans-serif"
        font-size="34" font-weight="700" fill="#f6e6b9"
        stroke="#3a2818" stroke-width="1.1">عربي</text>

  <path d="M59 75c22-18 42-28 69-33 27 5 47 15 69 33" fill="none" stroke="#f0d28d" stroke-width="6" stroke-linecap="round" opacity=".82"/>
  <path d="M57 205c40 20 102 20 142 0" fill="none" stroke="#f0d28d" stroke-width="6" stroke-linecap="round" opacity=".72"/>
</svg>
